<?xml version="1.0" encoding="UTF-8" standalone="no"?>
<svg
   version="1.0"
   width="800.000000pt"
   height="600.000000pt"
   viewBox="0 0 576.000000 433.000000"
   preserveAspectRatio="xMidYMid meet"
   id="svg20"
   sodipodi:docname="preview.svg"
   inkscape:version="1.4 (86a8ad7, 2024-10-11)"
   xmlns:inkscape="http://www.inkscape.org/namespaces/inkscape"
   xmlns:sodipodi="http://sodipodi.sourceforge.net/DTD/sodipodi-0.dtd"
   xmlns="http://www.w3.org/2000/svg"
   xmlns:svg="http://www.w3.org/2000/svg">
  <defs
     id="defs20" />
  <sodipodi:namedview
     id="namedview20"
     pagecolor="#ffffff"
     bordercolor="#000000"
     borderopacity="0.25"
     inkscape:showpageshadow="2"
     inkscape:pageopacity="0.0"
     inkscape:pagecheckerboard="0"
     inkscape:deskcolor="#d1d1d1"
     inkscape:document-units="pt"
     inkscape:zoom="0.96625"
     inkscape:cx="533.50582"
     inkscape:cy="400"
     inkscape:window-width="1920"
     inkscape:window-height="991"
     inkscape:window-x="-9"
     inkscape:window-y="-9"
     inkscape:window-maximized="1"
     inkscape:current-layer="svg20" />
  <g
     transform="matrix(0.29155056,0,0,-0.17423275,-558.98175,689.27732)"
     fill="#ffffff"
     stroke="none"
     id="g20"
     style="stroke-width:0.99900901;stroke-dasharray:none">
    <!-- Cambia fill="#000000" a fill="#FFFFFF" -->
    <path
       d="m 2975,3876 c 43,-18 106,-94 129,-152 38,-100 33,-281 -20,-634 -8,-58 -17,-125 -19,-149 -3,-24 -7,-51 -9,-60 -3,-9 -15,-119 -26,-246 -41,-465 -47,-483 -160,-558 -13,-10 -20,-17 -14,-17 13,0 53,27 92,64 l 33,31 -7,-83 c -6,-75 -5,-82 11,-82 17,0 44,26 45,43 0,5 -8,6 -18,3 -21,-7 -21,-22 2,204 8,80 22,228 31,330 28,319 32,359 70,615 31,213 36,270 33,385 -3,119 -6,141 -27,184 -38,78 -108,137 -159,136 -10,-1 -4,-7 13,-14 z"
       id="path1"
       style="stroke-width:0.99900901;stroke-dasharray:none" />
    <path
       d="m 2690,3789 c -22,-18 -22,-19 -3,-10 12,6 25,16 28,21 9,15 3,12 -25,-11 z"
       id="path2"
       style="stroke-width:0.99900901;stroke-dasharray:none" />
    <path
       d="m 2567,3668 c -45,-57 -90,-124 -115,-173 -23,-47 -39,-115 -25,-115 5,0 10,11 11,25 3,44 57,140 161,286 26,36 2,19 -32,-23 z"
       id="path3"
       style="stroke-width:0.99900901;stroke-dasharray:none" />
    <path
       d="m 2589,2799 c 15,-14 21,-32 21,-64 0,-40 -5,-50 -41,-85 -60,-58 -163,-128 -222,-150 -28,-11 -53,-18 -55,-15 -3,2 1,19 8,37 36,94 76,161 128,217 32,33 55,61 51,61 -14,0 -99,-83 -99,-96 0,-8 -7,-17 -16,-21 -19,-7 -115,-204 -120,-244 -5,-40 -113,-396 -146,-479 -16,-41 -40,-96 -54,-122 -13,-27 -22,-48 -19,-48 2,0 24,14 49,30 25,17 62,37 83,45 21,7 31,14 23,14 -8,0 -35,-8 -59,-19 -24,-11 -45,-20 -46,-20 -2,0 14,39 34,88 43,99 97,267 137,424 l 26,107 72,27 c 142,54 286,175 286,240 0,44 -18,81 -42,88 -20,5 -20,4 1,-15 z"
       id="path4"
       style="stroke-width:0.99900901;stroke-dasharray:none" />
    <path
       d="m 3548,2470 c -4,-28 -2,-30 26,-30 36,0 125,-39 145,-64 12,-14 12,-26 3,-67 -7,-28 -12,-69 -12,-92 -1,-41 -3,-44 -90,-110 -49,-38 -101,-79 -117,-93 -15,-13 -30,-24 -33,-24 -3,0 -22,41 -42,90 -43,102 -47,152 -18,210 19,37 67,80 89,80 19,0 12,-66 -9,-93 -24,-31 -26,-45 -3,-26 27,23 53,90 42,111 -14,26 -40,22 -87,-12 -52,-37 -72,-76 -72,-137 0,-48 -2,-51 -82,-131 -45,-45 -77,-82 -70,-82 7,0 45,32 83,71 44,45 74,68 80,62 16,-16 67,-146 62,-157 -3,-6 -28,-31 -57,-56 -68,-60 -164,-167 -187,-210 -32,-61 -24,-112 22,-136 38,-19 89,-5 156,45 68,51 107,132 108,221 0,36 -3,80 -7,98 -7,31 -5,35 48,75 83,62 198,158 206,171 4,6 8,36 8,67 0,91 9,117 46,140 43,26 44,53 2,79 -29,18 -44,19 -114,14 -52,-4 -88,-3 -101,5 -19,9 -21,7 -25,-19 z m -84,-542 c 17,-64 -5,-180 -46,-242 -27,-40 -100,-95 -137,-102 -71,-15 -96,40 -55,124 27,54 198,242 221,242 6,0 13,-10 17,-22 z"
       id="path5"
       style="stroke-width:0.99900901;stroke-dasharray:none" />
    <path
       d="m 2006,2359 c -28,-22 -32,-59 -7,-67 9,-3 11,1 7,15 -4,13 1,30 15,46 25,33 21,34 -15,6 z"
       id="path6"
       style="stroke-width:0.99900901;stroke-dasharray:none" />
    <path
       d="m 3175,2297 c -4,-8 -5,-26 -3,-39 4,-23 4,-23 18,5 10,21 11,30 2,39 -8,8 -13,7 -17,-5 z"
       id="path7"
       style="stroke-width:0.99900901;stroke-dasharray:none" />
    <path
       d="m 2805,2264 c 10,-10 14,-25 11,-38 -3,-12 -6,-26 -6,-32 0,-6 -12,-29 -26,-50 l -26,-39 27,25 c 49,44 72,131 39,144 -28,11 -36,6 -19,-10 z"
       id="path8"
       style="stroke-width:0.99900901;stroke-dasharray:none" />
    <path
       d="m 2763,2258 c -46,-58 -56,-139 -22,-182 17,-21 28,-26 62,-24 35,1 37,2 11,5 -43,5 -65,33 -71,87 -4,35 0,54 16,82 21,36 24,57 4,32 z"
       id="path9"
       style="stroke-width:0.99900901;stroke-dasharray:none" />
    <path
       d="m 3162,2198 c -13,-17 -27,-149 -18,-182 4,-15 14,-26 22,-26 14,0 14,2 3,16 -17,20 -16,107 1,158 13,40 10,55 -8,34 z"
       id="path10"
       style="stroke-width:0.99900901;stroke-dasharray:none" />
    <path
       d="m 2735,1890 c -19,-8 -19,-9 2,-9 12,-1 25,4 28,9 7,12 -2,12 -30,0 z"
       id="path11"
       style="stroke-width:0.99900901;stroke-dasharray:none" />
    <path
       d="m 2388,1883 c 7,-3 16,-2 19,1 4,3 -2,6 -13,5 -11,0 -14,-3 -6,-6 z"
       id="path12"
       style="stroke-width:0.99900901;stroke-dasharray:none" />
    <path
       d="m 2438,1873 c 7,-3 16,-2 19,1 4,3 -2,6 -13,5 -11,0 -14,-3 -6,-6 z"
       id="path13"
       style="stroke-width:0.99900901;stroke-dasharray:none" />
    <path
       d="m 2678,1873 c 6,-2 18,-2 25,0 6,3 1,5 -13,5 -14,0 -19,-2 -12,-5 z"
       id="path14"
       style="stroke-width:0.99900901;stroke-dasharray:none" />
    <path
       d="m 2097,1773 c -4,-3 -7,-44 -7,-90 v -83 h 63 c 36,0 68,5 75,12 17,17 15,44 -4,63 -13,12 -14,19 -4,30 18,21 4,62 -22,69 -31,8 -93,8 -101,-1 z m 112,-27 c 25,-30 -15,-62 -70,-54 -19,2 -25,10 -27,36 -3,32 -3,32 41,32 26,0 49,-6 56,-14 z m -5,-72 c 9,-3 16,-16 16,-29 0,-27 -17,-35 -71,-35 -38,0 -39,1 -39,35 0,34 1,35 39,35 22,0 46,-3 55,-6 z"
       id="path15"
       style="stroke-width:0.99900901;stroke-dasharray:none" />
    <path
       d="m 2280,1690 v -90 l 68,2 67,1 -60,6 c -59,6 -60,7 -60,36 0,29 2,30 50,36 l 50,6 -47,1 c -42,2 -48,5 -54,26 -9,37 2,46 57,46 27,0 49,5 49,10 0,6 -27,10 -60,10 h -60 z"
       id="path16"
       style="stroke-width:0.99900901;stroke-dasharray:none" />
    <path
       d="m 2632,1713 c -2,-89 15,-113 77,-113 56,0 71,25 69,115 l -1,70 -6,-73 c -7,-81 -22,-102 -72,-102 -39,0 -53,25 -60,104 l -6,71 z"
       id="path17"
       style="stroke-width:0.99900901;stroke-dasharray:none" />
    <path
       d="m 2484,1713 c -14,-31 -32,-69 -40,-85 -8,-15 -10,-28 -5,-28 5,0 13,9 16,20 4,12 15,20 28,20 17,0 19,2 8,9 -12,8 -11,16 5,55 10,25 22,46 25,46 5,0 44,-77 44,-90 1,-10 38,-61 42,-56 7,7 -77,166 -88,166 -5,0 -21,-26 -35,-57 z"
       id="path18"
       style="stroke-width:0.99900901;stroke-dasharray:none" />
    <path
       d="m 2848,1763 32,-4 v -87 c 1,-66 3,-83 11,-69 6,10 10,35 8,55 -5,90 -2,100 34,105 17,2 -2,4 -43,4 -41,0 -60,-2 -42,-4 z"
       id="path19"
       style="stroke-width:0.99900901;stroke-dasharray:none" />
    <path
       d="m 2980,1766 c 0,-2 16,-30 35,-62 19,-32 36,-72 36,-88 1,-30 1,-30 8,5 4,20 22,60 40,89 18,28 30,55 27,58 -3,3 -7,3 -9,1 -2,-2 -15,-23 -30,-46 -15,-24 -31,-43 -35,-43 -4,0 -20,20 -35,45 -26,40 -37,53 -37,41 z"
       id="path20"
       style="stroke-width:0.99900901;stroke-dasharray:none" />
  </g>
</svg>
